# xmcd CD database file
#
# Track frame offsets:
#	150
#	8814
#	26984
#	48251
#	70393
#	86422
#	107382
#	134479
#	149938
#	168473
#	186797
#	210699
#	231854
#	251913
#
# Disc length: 3577 seconds
#
# Revision: 1
# Processed by: cddbd v1.5PL3 Copyright (c) Steve Scherf et al.
# Submitted via: CDex 1.40Release
#
DISCID=cf0df70e
DTITLE=倖田 來未 - grow into one
DYEAR=2003
DGENRE=JPop
TTITLE0=Teaser (feat. Clench and Blistah)
TTITLE1=real Emotion
TTITLE2=BOY FRIEND？
TTITLE3=Your only one
TTITLE4=one
TTITLE5=One night romance
TTITLE6=1000の言葉 [Original Mix]
TTITLE7=S.O.S. 〜sound of silence〜
TTITLE8=m.a.z.e
TTITLE9=乱反射
TTITLE10=Pearl Moon
TTITLE11=Nasty girl
TTITLE12=To be one
TTITLE13=love across the ocean
EXTD=YEAR: 2003
EXTT0=
EXTT1=
EXTT2=
EXTT3=
EXTT4=
EXTT5=
EXTT6=
EXTT7=
EXTT8=
EXTT9=
EXTT10=
EXTT11=
EXTT12=
EXTT13=
PLAYORDER=
